<svg width="150" height="150" viewBox="0 0 150 150" fill="none" xmlns="http://www.w3.org/2000/svg">
<rect width="150" height="150" rx="75" fill="white"/>
<path fill-rule="evenodd" clip-rule="evenodd" d="M55.3431 50.7598C55.3431 40.4263 63.9757 32 74.6863 32C85.3968 32 94.0294 40.4263 94.0294 50.7598C94.0294 61.0934 85.3968 69.5196 74.6863 69.5196C63.9757 69.5196 55.3431 61.0934 55.3431 50.7598ZM74.6863 30C62.9264 30 53.3431 39.2673 53.3431 50.7598C53.3431 62.2524 62.9264 71.5196 74.6863 71.5196C86.4461 71.5196 96.0294 62.2524 96.0294 50.7598C96.0294 39.2673 86.4461 30 74.6863 30ZM54.3431 89.2795C48.6918 89.2795 43.2663 91.4598 39.2616 95.3497C35.2559 99.2405 33 104.524 33 110.039V119.919C33 120.471 33.4477 120.919 34 120.919C34.5523 120.919 35 120.471 35 119.919V110.039C35 105.073 37.0306 100.305 40.6551 96.7843C44.2806 93.2628 49.2038 91.2795 54.3431 91.2795H95.0294C100.169 91.2795 105.092 93.2628 108.717 96.7843C112.342 100.305 114.373 105.073 114.373 110.039V119.919C114.373 120.471 114.82 120.919 115.373 120.919C115.925 120.919 116.373 120.471 116.373 119.919V110.039C116.373 104.524 114.117 99.2405 110.111 95.3497C106.106 91.4598 100.681 89.2795 95.0294 89.2795H54.3431Z" fill="#049DBF"/>
<path d="M39.2616 95.3497L37.8681 93.915H37.8681L39.2616 95.3497ZM40.6551 96.7843L39.2616 95.3497H39.2616L40.6551 96.7843ZM108.717 96.7843L110.111 95.3497L108.717 96.7843ZM110.111 95.3497L111.504 93.915L110.111 95.3497ZM74.6863 30C62.9255 30 53.3431 39.2681 53.3431 50.7598H57.3431C57.3431 41.5844 65.0259 34 74.6863 34V30ZM96.0294 50.7598C96.0294 39.2681 86.447 30 74.6863 30V34C84.3466 34 92.0294 41.5844 92.0294 50.7598H96.0294ZM74.6863 71.5196C86.447 71.5196 96.0294 62.2515 96.0294 50.7598H92.0294C92.0294 59.9352 84.3466 67.5196 74.6863 67.5196V71.5196ZM53.3431 50.7598C53.3431 62.2515 62.9255 71.5196 74.6863 71.5196V67.5196C65.0259 67.5196 57.3431 59.9352 57.3431 50.7598H53.3431ZM55.3431 50.7598C55.3431 40.4271 63.9749 32 74.6863 32V28C61.8779 28 51.3431 38.1075 51.3431 50.7598H55.3431ZM74.6863 69.5196C63.9749 69.5196 55.3431 61.0926 55.3431 50.7598H51.3431C51.3431 63.4122 61.8779 73.5196 74.6863 73.5196V69.5196ZM94.0294 50.7598C94.0294 61.0926 85.3976 69.5196 74.6863 69.5196V73.5196C87.4947 73.5196 98.0294 63.4122 98.0294 50.7598H94.0294ZM74.6863 32C85.3976 32 94.0294 40.4271 94.0294 50.7598H98.0294C98.0294 38.1075 87.4947 28 74.6863 28V32ZM40.6551 96.7843C44.2806 93.2628 49.2038 91.2795 54.3431 91.2795V87.2795C48.1799 87.2795 42.2521 89.6568 37.8681 93.915L40.6551 96.7843ZM35 110.039C35 105.073 37.0306 100.305 40.6551 96.7843L37.8681 93.915C33.4812 98.1761 31 103.974 31 110.039H35ZM35 119.919V110.039H31V119.919H35ZM34 118.919C34.5523 118.919 35 119.367 35 119.919H31C31 121.576 32.3431 122.919 34 122.919V118.919ZM33 119.919C33 119.367 33.4477 118.919 34 118.919V122.919C35.6569 122.919 37 121.576 37 119.919H33ZM33 110.039V119.919H37V110.039H33ZM39.2616 95.3497C35.2559 99.2405 33 104.524 33 110.039H37C37 105.623 38.8054 101.369 42.0486 98.2189L39.2616 95.3497ZM54.3431 89.2795C48.6918 89.2795 43.2663 91.4598 39.2616 95.3497L42.0486 98.2189C45.2948 95.0658 49.7158 93.2795 54.3431 93.2795V89.2795ZM95.0294 89.2795H54.3431V93.2795H95.0294V89.2795ZM110.111 95.3497C106.106 91.4598 100.681 89.2795 95.0294 89.2795V93.2795C99.6568 93.2795 104.078 95.0658 107.324 98.2189L110.111 95.3497ZM116.373 110.039C116.373 104.524 114.117 99.2405 110.111 95.3497L107.324 98.2189C110.567 101.369 112.373 105.623 112.373 110.039H116.373ZM116.373 119.919V110.039H112.373V119.919H116.373ZM115.373 118.919C115.925 118.919 116.373 119.367 116.373 119.919H112.373C112.373 121.576 113.716 122.919 115.373 122.919V118.919ZM114.373 119.919C114.373 119.367 114.82 118.919 115.373 118.919V122.919C117.029 122.919 118.373 121.576 118.373 119.919H114.373ZM114.373 110.039V119.919H118.373V110.039H114.373ZM108.717 96.7843C112.342 100.305 114.373 105.073 114.373 110.039H118.373C118.373 103.974 115.891 98.1761 111.504 93.915L108.717 96.7843ZM95.0294 91.2795C100.169 91.2795 105.092 93.2628 108.717 96.7843L111.504 93.915C107.12 89.6568 101.193 87.2795 95.0294 87.2795V91.2795ZM54.3431 91.2795H95.0294V87.2795H54.3431V91.2795Z" fill="#049DBF"/>
</svg>
