<svg
  width="450"
  height="450"
  viewBox="0 0 450 450"
  fill="none"
  xmlns="http://www.w3.org/2000/svg"
>
<rect width="450" height="450" rx="225" fill="white" />
<path
    d="M225.041 405.408C221.627 405.408 218.043 405.152 214.289 404.64C210.619 404.213 207.121 403.531 203.793 402.592C200.465 401.653 197.478 400.544 194.833 399.264C192.529 398.155 190.907 396.704 189.969 394.912C189.03 393.035 188.689 391.072 188.945 389.024C189.201 386.976 189.926 385.184 191.121 383.648C192.315 382.027 193.894 380.96 195.857 380.448C197.819 379.851 200.038 380.107 202.513 381.216C205.755 382.752 209.425 383.947 213.521 384.8C217.617 385.653 221.457 386.08 225.041 386.08C230.673 386.08 234.598 385.355 236.817 383.904C239.121 382.368 240.273 380.491 240.273 378.272C240.273 376.309 239.462 374.731 237.841 373.536C236.305 372.341 233.531 371.317 229.521 370.464L214.545 367.264C206.353 365.557 200.251 362.571 196.241 358.304C192.23 354.037 190.225 348.533 190.225 341.792C190.225 337.355 191.121 333.344 192.913 329.76C194.79 326.091 197.393 322.976 200.721 320.416C204.134 317.856 208.145 315.893 212.753 314.528C217.446 313.077 222.651 312.352 228.369 312.352C232.806 312.352 237.286 312.864 241.809 313.888C246.417 314.827 250.385 316.277 253.713 318.24C255.675 319.264 257.083 320.672 257.937 322.464C258.79 324.256 259.131 326.133 258.961 328.096C258.79 329.973 258.107 331.637 256.913 333.088C255.803 334.539 254.267 335.52 252.305 336.032C250.427 336.459 248.166 336.117 245.521 335.008C243.046 333.899 240.23 333.088 237.073 332.576C234.001 331.979 231.014 331.68 228.113 331.68C224.955 331.68 222.267 332.064 220.049 332.832C217.83 333.515 216.123 334.539 214.929 335.904C213.819 337.269 213.265 338.848 213.265 340.64C213.265 342.432 213.99 343.968 215.441 345.248C216.977 346.443 219.75 347.467 223.761 348.32L238.609 351.52C246.886 353.312 253.073 356.256 257.169 360.352C261.265 364.448 263.312 369.781 263.312 376.352C263.312 380.789 262.417 384.8 260.625 388.384C258.833 391.968 256.273 395.04 252.945 397.6C249.617 400.075 245.606 401.995 240.913 403.36C236.219 404.725 230.929 405.408 225.041 405.408Z"
    fill="#011140"
  />
<path
    d="M188.01 144.152C184.596 144.152 181.951 143.213 180.074 141.336C178.282 139.459 177.385 136.813 177.385 133.4V62.36C177.385 58.8613 178.367 56.216 180.33 54.424C182.292 52.5467 185.066 51.608 188.65 51.608C191.636 51.608 193.983 52.2053 195.69 53.4C197.482 54.5093 199.103 56.3867 200.554 59.032L228.074 108.44H223.594L250.986 59.032C252.522 56.3867 254.143 54.5093 255.85 53.4C257.642 52.2053 260.031 51.608 263.018 51.608C266.431 51.608 269.034 52.5467 270.826 54.424C272.703 56.216 273.642 58.8613 273.642 62.36V133.4C273.642 136.813 272.746 139.459 270.954 141.336C269.162 143.213 266.516 144.152 263.018 144.152C259.604 144.152 256.959 143.213 255.082 141.336C253.29 139.459 252.394 136.813 252.394 133.4V89.368H255.082L234.474 125.208C233.279 127.085 231.999 128.493 230.634 129.432C229.354 130.371 227.604 130.84 225.386 130.84C223.252 130.84 221.503 130.371 220.138 129.432C218.772 128.493 217.535 127.085 216.426 125.208L195.69 89.24H198.634V133.4C198.634 136.813 197.738 139.459 195.946 141.336C194.154 143.213 191.508 144.152 188.01 144.152Z"
    fill="#011140"
  />
<g clip-path="url(#clip0_663_150)">
<path
      d="M257.292 227.657C269.979 220.561 280.215 233.196 286.213 232.737C287.413 230.567 288 228.065 288 225.385C288 223.113 287.515 221.02 286.698 219.131C276.386 207.492 253.872 214.766 253.872 214.766C252.494 214.766 251.294 213.567 251.294 212.188C251.294 210.81 252.494 209.61 253.872 209.61C253.872 209.61 278.606 203.331 286.315 214.077C287.413 211.984 288 209.508 288 206.93C288 200.676 284.426 195.316 279.372 193.248C279.27 193.35 269.928 201.365 259.13 198.2C257.752 198.2 256.552 196.898 256.654 195.52C256.654 194.142 257.854 192.942 259.334 193.044C267.758 196.388 273.016 191.563 274.803 190.364C271.485 179.209 260.84 177.728 260.458 177.754C260.458 177.754 243.84 188.041 245.448 205.934C245.576 207.313 244.351 208.615 242.972 208.615H242.87C241.492 208.615 240.318 207.517 240.292 206.139C239.833 185.31 255.863 175.303 256.169 175.201C254.867 168.258 249.405 163 242.87 163C235.519 163 229.673 169.535 229.673 177.575C229.673 185.616 229.673 265.359 229.673 273.399C229.673 281.44 235.621 287.974 242.87 287.974C249.533 287.974 255.021 282.563 255.914 275.645C255.914 275.645 252.366 264.235 241.773 263.368C240.369 263.24 239.501 261.683 239.68 260.304C239.986 258.926 241.364 258.033 242.743 258.211C255.276 259.36 261.019 273.399 261.402 273.399C268.754 273.399 274.599 266.865 274.599 258.824C281.95 258.824 287.796 252.289 287.796 244.249C287.796 241.977 287.311 239.782 286.494 237.893C280.444 238.327 268.166 226.406 259.794 232.201C258.722 232.941 257.624 233.911 257.216 234.804C256.629 236.106 255.123 236.693 253.846 236.183C252.545 235.595 251.958 234.089 252.468 232.813C253.591 230.261 255.914 228.423 257.292 227.657ZM240.292 238.174C240.522 239.552 239.603 240.956 238.123 241.16C237.918 241.186 235.468 241.313 235.136 238.99C233.502 227.223 243.483 216.553 244.249 214.69C244.938 213.388 246.418 212.903 247.72 213.592C249.022 214.281 249.507 215.762 248.818 217.064C247.822 219.131 238.761 228.525 240.292 238.174ZM266.175 238.276C266.762 236.974 268.269 236.285 269.545 236.897C270.847 237.484 271.536 238.99 270.923 240.267C268.754 245.525 258.313 258.518 244.427 252.06C243.151 251.473 242.436 249.967 243.049 248.69C243.636 247.388 245.142 246.801 246.418 247.312C256.501 252.315 264.593 242.36 266.175 238.276Z"
      fill="#011140"
    />
<path
      d="M198.532 232.839C199.017 234.141 198.43 235.621 197.154 236.208C195.852 236.693 194.371 236.106 193.784 234.83C193.376 233.936 192.278 232.966 191.206 232.226C182.859 226.432 170.581 238.352 164.506 237.918C163.715 239.807 163.204 241.977 163.204 244.274C163.204 252.315 169.05 258.85 176.401 258.85C176.401 266.89 182.246 273.425 189.598 273.425C189.981 273.425 195.699 259.411 208.257 258.237C209.636 258.033 211.04 258.926 211.32 260.33C211.525 261.708 210.657 263.291 209.227 263.393C198.634 264.261 195.086 275.671 195.086 275.671C195.979 282.589 201.493 288 208.13 288C215.379 288 221.327 281.465 221.327 273.425C221.327 265.384 221.327 185.642 221.327 177.601C221.327 169.56 215.481 163.026 208.13 163.026C201.595 163.026 196.133 168.284 194.831 175.227C195.137 175.329 211.167 185.335 210.708 206.164C210.682 207.568 209.508 208.64 208.13 208.64H208.028C206.649 208.64 205.424 207.338 205.552 205.96C207.16 188.066 190.542 177.78 190.542 177.78C190.159 177.754 179.515 179.235 176.197 190.389C177.984 191.589 183.268 196.388 191.666 193.07C193.146 192.967 194.346 194.167 194.346 195.546C194.448 196.924 193.248 198.226 191.87 198.226C181.098 201.365 171.73 193.376 171.628 193.274C166.574 195.367 163 200.702 163 206.956C163 209.534 163.587 212.01 164.685 214.103C172.419 203.331 197.154 209.61 197.154 209.61C198.532 209.61 199.732 210.81 199.732 212.188C199.732 213.567 198.532 214.766 197.154 214.766C197.154 214.766 174.64 207.492 164.327 219.131C163.536 221.02 163.026 223.088 163.026 225.385C163.026 228.065 163.613 230.541 164.812 232.737C170.811 233.196 181.047 220.586 193.733 227.657C195.111 228.423 197.434 230.261 198.532 232.839ZM202.208 217.064C201.518 215.762 202.003 214.281 203.305 213.592C204.607 212.903 206.088 213.388 206.777 214.69C207.543 216.553 217.523 227.223 215.89 238.991C215.558 241.313 213.133 241.186 212.903 241.16C211.422 240.956 210.504 239.578 210.733 238.174C212.265 228.525 203.203 219.131 202.208 217.064ZM204.582 247.312C205.883 246.827 207.364 247.414 207.951 248.69C208.538 249.992 207.849 251.473 206.573 252.06C192.687 258.518 182.272 245.525 180.077 240.267C179.49 238.965 180.179 237.484 181.455 236.897C182.757 236.31 184.237 236.999 184.825 238.276C186.433 242.36 194.524 252.315 204.582 247.312Z"
      fill="#011140"
    />
</g>
<line x1="300" y1="238" x2="450" y2="238" stroke="#04C4D9" stroke-width="4" />
<line x1="300" y1="223" x2="450" y2="223" stroke="#04C4D9" stroke-width="4" />
<line y1="208" x2="150" y2="208" stroke="#04C4D9" stroke-width="4" />
<line y1="223" x2="150" y2="223" stroke="#04C4D9" stroke-width="4" />
<defs>
<clipPath id="clip0_663_150">
<rect width="125" height="125" fill="white" transform="translate(163 163)" />
</clipPath>
</defs>
</svg>
