<svg
  width="450"
  height="450"
  viewBox="0 0 450 450"
  fill="none"
  xmlns="http://www.w3.org/2000/svg"
>
<g clip-path="url(#clip0_682_211)">
<rect width="450" height="450" rx="225" fill="white" />
<path
      d="M128.5 220.534C110.796 253.086 64 458.444 64 458.444L108.5 456.948C108.5 456.948 137 321.09 155 321.09C173 321.09 229 400.034 229 400.034L231 402.534C231 402.534 289.994 321.09 309.494 321.09C328.994 321.09 340 462.5 340 462.5L385.006 458.444C385.006 458.444 356.5 256.086 340 224.034C323.5 191.982 316.046 212.982 307 224.034L231 317.034C231 317.034 166.5 228.982 160 220.534C153.5 212.086 146.204 187.982 128.5 220.534Z"
      fill="#011140"
    />
<path
      d="M125 146.534C107.296 179.086 48 410.59 48 410.59L92.5 409.094C92.5 409.094 133.5 247.09 151.5 247.09C169.5 247.09 225.5 326.034 225.5 326.034L227.5 328.534C227.5 328.534 286.494 247.09 305.994 247.09C325.494 247.09 356.5 410.59 356.5 410.59L401.506 406.534C401.506 406.534 353 182.086 336.5 150.034C320 117.982 312.546 138.982 303.5 150.034L227.5 243.034C227.5 243.034 163 154.982 156.5 146.534C150 138.086 142.704 113.982 125 146.534Z"
      fill="#049DBF"
    />
<path
      d="M125 146.534C107.296 179.086 48 410.59 48 410.59L92.5 409.094C92.5 409.094 133.5 247.09 151.5 247.09C169.5 247.09 225.5 326.034 225.5 326.034L227.5 328.534C227.5 328.534 286.494 247.09 305.994 247.09C325.494 247.09 356.5 410.59 356.5 410.59L401.506 406.534C401.506 406.534 353 182.086 336.5 150.034C320 117.982 312.546 138.982 303.5 150.034L227.5 243.034C227.5 243.034 163 154.982 156.5 146.534C150 138.086 142.704 113.982 125 146.534Z"
      fill="#049DBF"
    />
<path
      d="M125 146.534C107.296 179.086 48 410.59 48 410.59L92.5 409.094C92.5 409.094 133.5 247.09 151.5 247.09C169.5 247.09 225.5 326.034 225.5 326.034L227.5 328.534C227.5 328.534 286.494 247.09 305.994 247.09C325.494 247.09 356.5 410.59 356.5 410.59L401.506 406.534C401.506 406.534 353 182.086 336.5 150.034C320 117.982 312.546 138.982 303.5 150.034L227.5 243.034C227.5 243.034 163 154.982 156.5 146.534C150 138.086 142.704 113.982 125 146.534Z"
      fill="#049DBF"
    />
<path
      d="M129.973 43.0903C111.096 43.0903 19 398.5 19 398.5L63.5 397.004C63.5 397.004 133.5 166.09 151.5 166.09C169.5 166.09 225.5 245.034 225.5 245.034L227.5 247.534C227.5 247.534 286.494 166.09 305.994 166.09C325.494 166.09 378.494 402.556 378.494 402.556L424.5 398.5C424.5 398.5 336.027 38.9661 318.527 38.9661C301.027 38.9661 225.5 166.09 225.5 166.09C225.5 166.09 148.851 43.0903 129.973 43.0903Z"
      fill="#04C4D9"
    />
<path
      d="M129.973 43.0903C111.096 43.0903 19 398.5 19 398.5L63.5 397.004C63.5 397.004 133.5 166.09 151.5 166.09C169.5 166.09 225.5 245.034 225.5 245.034L227.5 247.534C227.5 247.534 286.494 166.09 305.994 166.09C325.494 166.09 378.494 402.556 378.494 402.556L424.5 398.5C424.5 398.5 336.027 38.9661 318.527 38.9661C301.027 38.9661 225.5 166.09 225.5 166.09C225.5 166.09 148.851 43.0903 129.973 43.0903Z"
      fill="#04C4D9"
    />
<path
      d="M129.973 43.0903C111.096 43.0903 19 398.5 19 398.5L63.5 397.004C63.5 397.004 133.5 166.09 151.5 166.09C169.5 166.09 225.5 245.034 225.5 245.034L227.5 247.534C227.5 247.534 286.494 166.09 305.994 166.09C325.494 166.09 378.494 402.556 378.494 402.556L424.5 398.5C424.5 398.5 336.027 38.9661 318.527 38.9661C301.027 38.9661 225.5 166.09 225.5 166.09C225.5 166.09 148.851 43.0903 129.973 43.0903Z"
      fill="#04C4D9"
    />
</g>
<rect
    x="7.5"
    y="7.5"
    width="435"
    height="435"
    rx="217.5"
    stroke="#1D3240"
    stroke-width="15"
  />
<defs>
<clipPath id="clip0_682_211">
<rect width="450" height="450" rx="225" fill="white" />
</clipPath>
</defs>
</svg>
