<svg width="25" height="25" viewBox="0 0 25 25" fill="none" xmlns="http://www.w3.org/2000/svg">
<path d="M19.0576 3.08694H5.05762C3.95305 3.08694 3.05762 3.98238 3.05762 5.08694V19.0869C3.05762 20.1915 3.95305 21.0869 5.05762 21.0869H19.0576C20.1622 21.0869 21.0576 20.1915 21.0576 19.0869V5.08694C21.0576 3.98238 20.1622 3.08694 19.0576 3.08694Z" stroke="white" stroke-width="2" stroke-linecap="round" stroke-linejoin="round"/>
<path d="M8.55762 10.0869C9.38604 10.0869 10.0576 9.41537 10.0576 8.58694C10.0576 7.75852 9.38604 7.08694 8.55762 7.08694C7.72919 7.08694 7.05762 7.75852 7.05762 8.58694C7.05762 9.41537 7.72919 10.0869 8.55762 10.0869Z" stroke="white" stroke-width="2" stroke-linecap="round" stroke-linejoin="round"/>
<path d="M21.0576 15.0869L16.0576 10.0869L5.05762 21.0869" stroke="white" stroke-width="2" stroke-linecap="round" stroke-linejoin="round"/>
</svg>
